<svg width="75" height="23" viewBox="0 0 75 23"
     xmlns="http://www.w3.org/2000/svg">
    <title>Mastercard secure code</title>
    <g fill="none" fill-rule="evenodd">
        <path
            d="M69.9 17.4c-.2 0-.5 0-.7.1-.2.1-.4.2-.5.3-.1.1-.2.3-.3.5-.1.2-.1.4-.2.6h3.2c-.1-.5-.2-.9-.5-1.1-.2-.2-.6-.4-1-.4zm4.3 5.3v-.4h-.1l-.1.3-.1-.3h-.1v.4h.1v-.3l.1.2h.1l.1-.2v.3zm-.7 0v-.3h.1v-.1h-.3v.1h.1l.1.3zm-3.6-6.5c.4 0 .8.1 1.2.2.4.2.7.4.9.7.3.3.5.6.6 1 .1.4.2.8.2 1.3v.5h-4.6c0 .3.1.5.2.7.1.2.3.4.4.5l.6.3c.2.1.4.1.6.1.3 0 .6-.1.9-.2.3-.1.6-.3.9-.5l.7 1c-.4.3-.8.6-1.2.7-.4.1-.9.2-1.4.2-.5 0-.9-.1-1.3-.2-.4-.2-.7-.4-1-.7-.3-.3-.5-.6-.7-1-.2-.4-.2-.9-.2-1.4 0-.5.1-.9.2-1.3.2-.4.4-.8.6-1 .3-.3.6-.5 1-.7.5-.1 1-.2 1.4-.2zm-7.7 1.3c-.3 0-.6.1-.8.2-.2.1-.4.3-.6.4-.2.2-.3.4-.4.6-.1.2-.1.5-.1.8 0 .3 0 .5.1.8.1.2.2.5.4.6.2.2.4.3.6.4.2.1.5.2.8.2.3 0 .5-.1.8-.2.2-.1.4-.2.6-.4.2-.2.3-.4.4-.6.1-.2.1-.5.1-.8 0-.3 0-.6-.1-.8-.1-.2-.2-.5-.4-.6-.2-.2-.4-.3-.6-.4-.3-.1-.5-.2-.8-.2zm-.2-1.3c.4 0 .8.1 1.2.3.3.2.6.4.8.7v-3.9h1.4v9.4H64v-.8c-.2.3-.5.5-.8.7-.3.2-.7.2-1.2.2-.4 0-.8-.1-1.2-.2-.4-.2-.7-.4-1-.7-.3-.3-.5-.6-.7-1-.2-.4-.2-.8-.2-1.3s.1-.9.2-1.3c.2-.4.4-.8.7-1 .3-.3.6-.5 1-.7.4-.3.8-.4 1.2-.4zm-7.4 1.3c-.3 0-.5 0-.8.1-.2.1-.4.2-.6.4-.2.2-.3.4-.4.6-.1.2-.2.5-.2.8 0 .3.1.6.2.8.1.2.2.5.4.6.2.2.4.3.6.4.2.1.5.1.8.1.3 0 .5 0 .8-.1.2-.1.4-.2.6-.4.2-.2.3-.4.4-.6.1-.2.2-.5.2-.8 0-.3-.1-.6-.2-.8-.1-.2-.2-.5-.4-.6-.2-.2-.4-.3-.6-.4-.3 0-.6-.1-.8-.1zm0-1.3c.5 0 .9.1 1.3.3.4.2.8.4 1.1.7.3.3.5.6.7 1 .2.4.3.8.3 1.3s-.1.9-.3 1.3c-.2.4-.4.7-.7 1-.3.3-.7.5-1.1.7-.4.2-.9.3-1.3.3-.5 0-.9-.1-1.3-.3-.4-.2-.8-.4-1.1-.7-.3-.3-.5-.6-.7-1-.2-.4-.3-.8-.3-1.3s.1-.9.3-1.3c.2-.4.4-.7.7-1 .3-.3.7-.5 1.1-.7.3-.2.8-.3 1.3-.3zm-8.1-2.9c.4 0 .8 0 1.2.1.4.1.7.2 1.1.4l.9.6c.3.2.5.5.7.8l-1.2.8c-.3-.4-.6-.7-1.1-1-.5-.3-.9-.4-1.5-.4-.5 0-.9.1-1.3.2-.4.2-.7.4-1 .7-.3.3-.5.6-.7 1.1-.2.4-.2.9-.2 1.4 0 .5.1.9.2 1.4.2.4.4.8.7 1.1.3.3.6.5 1 .7.4.2.8.2 1.3.2s1-.1 1.5-.3c.4-.2.8-.6 1.1-1l1.2.9c-.2.3-.4.5-.7.8l-.9.6c-.3.2-.7.3-1 .4-.4.1-.8.1-1.2.1-.7 0-1.3-.1-1.9-.4-.6-.2-1.1-.6-1.5-1-.4-.4-.8-.9-1-1.5-.2-.6-.4-1.2-.4-1.9s.1-1.3.4-1.9c.2-.6.6-1.1 1-1.5.4-.4.9-.8 1.5-1 .4-.2 1.1-.4 1.8-.4zm-8.9 4.1c-.2 0-.5 0-.7.1-.2.1-.4.2-.5.3-.1.1-.2.3-.3.5-.1.2-.1.4-.2.6h3.2c-.1-.5-.2-.9-.5-1.1-.2-.2-.6-.4-1-.4zm0-1.2c.4 0 .8.1 1.2.2.4.2.7.4.9.7.3.3.5.6.6 1 .1.4.2.8.2 1.3v.5h-4.6c0 .3.1.5.2.7.1.2.3.4.4.5l.6.3c.2.1.4.1.6.1.3 0 .6-.1.9-.2.3-.1.6-.3.9-.5l.7 1c-.4.3-.8.6-1.2.7-.4.1-.9.2-1.4.2-.5 0-.9-.1-1.3-.2-.4-.2-.7-.4-1-.7-.3-.3-.5-.6-.7-1-.2-.4-.2-.9-.2-1.4 0-.5.1-.9.2-1.3.2-.4.4-.8.6-1 .3-.3.6-.5 1-.7.5-.1 1-.2 1.4-.2zm-4.6 0h.6c.2 0 .3.1.5.1l-.3 1.4c-.1-.1-.3-.1-.5-.2-.2 0-.4-.1-.5-.1-.2 0-.4 0-.6.1-.2.1-.3.2-.5.3-.1.1-.2.3-.3.5-.1.2-.1.4-.1.7v3.4h-1.4v-6.3h1.4v.7c.2-.3.5-.5.8-.7.2.2.6.1.9.1zM28.1 20c0 .5-.1.9-.2 1.3-.2.4-.4.6-.7.9-.3.2-.6.4-.9.5-.3.1-.7.2-1.1.2-.4 0-.7-.1-1.1-.2-.3-.1-.7-.3-.9-.5-.3-.2-.5-.5-.7-.9-.2-.4-.2-.8-.2-1.3v-3.6h1.4v3.5c0 .3 0 .6.1.8.1.2.2.4.3.5.1.1.3.2.5.3.2.1.4.1.6.1.2 0 .4 0 .6-.1.2-.1.3-.2.5-.3.1-.1.2-.3.3-.5.1-.2.1-.5.1-.8v-3.5h1.4V20zm-9.4-3.8c.5 0 .9.1 1.3.3.4.2.7.4 1 .7l-.9.9c-.2-.2-.5-.4-.7-.5-.2-.1-.5-.2-.8-.2-.3 0-.5 0-.7.1-.2.1-.4.2-.6.4-.2.2-.3.4-.4.6-.1.2-.1.5-.1.8 0 .3 0 .6.1.8.1.2.2.5.4.6.2.2.4.3.6.4.2.1.5.1.7.1.3 0 .6-.1.8-.2.3-.1.5-.3.7-.5l.8.9c-.3.3-.6.6-1 .7-.4.2-.8.3-1.3.3s-.9-.1-1.4-.3c-.4-.2-.8-.4-1-.7-.3-.3-.5-.6-.7-1-.2-.4-.2-.8-.2-1.3s.1-.9.2-1.3c.2-.4.4-.7.7-1 .3-.3.6-.5 1-.7.6.2 1 .1 1.5.1zm-7.3 1.2c-.2 0-.5 0-.7.1-.2.1-.4.2-.5.3-.1.1-.2.3-.3.5-.1.2-.1.4-.2.6h3.2c-.1-.5-.2-.9-.5-1.1-.2-.2-.5-.4-1-.4zm.1-1.2c.4 0 .8.1 1.2.2.4.2.7.4.9.7.3.3.5.6.6 1 .1.4.2.8.2 1.3v.5H9.8c0 .3.1.5.2.7.1.2.3.4.4.5l.6.3c.2.1.4.1.6.1.3 0 .6-.1.9-.2.3-.1.6-.3.9-.5l.7 1c-.4.3-.8.6-1.2.7-.4.1-.9.2-1.4.2-.5 0-.9-.1-1.3-.2-.4-.2-.7-.4-1-.7-.3-.3-.5-.6-.7-1-.2-.4-.2-.9-.2-1.4 0-.5.1-.9.2-1.3.2-.4.4-.8.6-1 .3-.3.6-.5 1-.7.5-.1.9-.2 1.4-.2zm-5-.7l-1.2-.6c-.4-.1-.9-.2-1.3-.2-.3 0-.6 0-.8.1-.3.1-.5.2-.7.3-.2.1-.3.3-.4.4-.1.2-.2.4-.2.6 0 .2 0 .4.1.5.1.1.2.2.4.3.2.1.4.2.6.2.2.1.5.1.8.2l.6.1c.4.1.7.1 1.1.2.4.1.7.3.9.5.3.2.5.4.7.7.2.3.3.7.3 1.1 0 .5-.1.9-.3 1.2-.2.4-.5.7-.8.9-.3.2-.7.4-1.2.6-.4.1-.9.2-1.4.2-.3 0-.6 0-1-.1-.3-.1-.7-.1-1-.2-.3-.1-.6-.2-.9-.4-.3-.2-.6-.3-.8-.5l.8-1.2c.2.1.3.3.6.4.2.1.5.2.7.3.3.1.5.2.8.2.3.1.5.1.8.1.3 0 .6 0 .8-.1.3-.1.5-.2.7-.3.2-.1.3-.3.5-.4.1-.2.2-.4.2-.6 0-.4-.2-.6-.5-.8-.4-.2-.9-.3-1.5-.4l-.9-.1c-.3 0-.7-.1-1-.2-.3-.1-.6-.3-.9-.5-.3-.2-.5-.4-.6-.7-.2-.3-.2-.7-.2-1.1 0-.5.1-.9.3-1.2.2-.4.4-.7.8-.9.3-.2.7-.4 1.1-.6.4-.1.9-.2 1.4-.2.7 0 1.3.1 1.8.3.5.2 1 .4 1.5.7l-.7 1.2z"
            fill="#F89E1B"></path>
        <path
            d="M69.6 4.4c-.3 0-.6.1-.8.2-.2.1-.4.3-.6.4-.2.2-.3.4-.4.7-.1.3-.1.5-.1.8 0 .3 0 .6.1.8.1.3.2.5.4.7.2.2.4.3.6.4.2.1.5.2.8.2.3 0 .6-.1.8-.2.2-.1.4-.3.6-.4.2-.2.3-.4.4-.7.1-.3.1-.5.1-.8 0-.3 0-.6-.1-.8-.1-.3-.2-.5-.4-.7-.2-.2-.4-.3-.6-.4-.2-.1-.5-.2-.8-.2zm4.9 5v.1h.2c-.1-.1-.1-.1-.2-.1zm.1 0h.1v.2h-.1l.1.1h-.1l-.1-.1v.1h-.1v-.4h.2v.1zm0 .5h.1s.1 0 .1-.1l.1-.1v-.2s0-.1-.1-.1l-.1-.1h-.2s-.1 0-.1.1l-.1.1v.2s0 .1.1.1l.1.1h.1zm0-.8h.2c.1 0 .1.1.1.1l.1.1v.4c0 .1-.1.1-.1.1l-.1.1h-.4c-.1 0-.1-.1-.1-.1l-.1-.1v-.4c0-.1.1-.1.1-.1l.1-.1c.1.1.1 0 .2 0zm-5.1-6c.5 0 .9.1 1.2.3.3.2.6.4.8.7V0h1.4v9.8h-1.4V9c-.2.3-.5.5-.8.7-.3.2-.7.3-1.2.3s-.9-.1-1.3-.3c-.4-.2-.7-.4-1-.7-.3-.3-.5-.7-.7-1.1-.2-.4-.3-.9-.3-1.4 0-.5.1-1 .3-1.4.2-.4.4-.8.7-1.1.3-.3.6-.5 1-.7.4-.1.8-.2 1.3-.2zm-4.7 0h.6c.2 0 .3.1.5.1l-.3 1.4c-.1-.1-.3-.1-.5-.2-.2 0-.4-.1-.6-.1-.2 0-.4 0-.6.1-.2.1-.4.2-.5.3-.1.1-.2.3-.3.5-.1.2-.1.5-.1.7v3.6h-1.4V3H63v.7c.2-.3.5-.5.8-.7.3.2.6.1 1 .1zm-8.6 1.3c-.3 0-.6.1-.8.2-.2.1-.4.3-.6.4-.2.2-.3.4-.4.7-.1.3-.1.5-.1.8 0 .3 0 .6.1.8.1.3.2.5.4.7.2.2.4.3.6.4.2.1.5.2.8.2.3 0 .6-.1.8-.2.2-.1.4-.3.6-.4.2-.2.3-.4.4-.7.1-.3.1-.5.1-.8 0-.3 0-.6-.1-.8-.1-.3-.2-.5-.4-.7-.2-.2-.4-.3-.6-.4-.3-.1-.6-.2-.8-.2zm3.2 5.3H58v-.8c-.2.3-.5.5-.8.7-.3.2-.7.3-1.2.3s-.9-.1-1.3-.3c-.4-.2-.7-.4-1-.7-.3-.3-.5-.7-.7-1.1-.2-.4-.3-.9-.3-1.4 0-.5.1-1 .3-1.4.2-.4.4-.8.7-1.1.3-.3.6-.5 1-.7.4-.2.8-.3 1.3-.3s.9.1 1.2.3c.3.2.6.4.8.7v-.8h1.4v6.6zm-9.9-6.6c.5 0 .9.1 1.4.3.4.2.8.4 1.1.8l-.9 1c-.2-.2-.5-.4-.7-.5-.2-.1-.5-.2-.8-.2-.3 0-.5.1-.8.2-.2.1-.4.2-.6.4-.2.2-.3.4-.4.7-.1.3-.1.5-.1.8 0 .3 0 .6.1.8.1.3.2.5.4.7.2.2.4.3.6.4.2.1.5.2.8.2.3 0 .6-.1.9-.2.3-.1.5-.3.7-.5l.9 1c-.3.3-.7.6-1.1.8-.4.2-.9.3-1.4.3-.5 0-1-.1-1.4-.3-.4-.2-.8-.4-1.1-.7-.3-.3-.5-.7-.7-1.1-.2-.4-.2-.9-.2-1.4 0-.5.1-.9.2-1.4.2-.4.4-.8.7-1.1.3-.3.7-.5 1.1-.7.3-.2.8-.3 1.3-.3zm-4.9 0h.6c.2 0 .3.1.5.1l-.3 1.4c-.1-.1-.3-.1-.5-.2-.2 0-.4-.1-.6-.1-.2 0-.4 0-.6.1-.2.1-.4.2-.5.3-.1.1-.2.3-.3.5-.1.2-.1.5-.1.7v3.6h-1.4V3h1.4v.7c.2-.3.5-.5.8-.7.3.2.6.1 1 .1zm-8 1.2c-.3 0-.5 0-.7.1-.2.1-.4.2-.5.3-.1.1-.3.3-.3.5-.1.2-.2.4-.2.6h3.4c-.1-.5-.3-.9-.5-1.2-.4-.1-.7-.3-1.2-.3zm0-1.2c.5 0 .9.1 1.2.2.4.2.7.4 1 .7.3.3.5.7.6 1.1.2.4.2.9.2 1.4v.6h-4.8c0 .3.1.5.3.8.1.2.3.4.4.5l.6.3c.2.1.4.1.7.1.3 0 .7-.1 1-.2.3-.1.6-.3.9-.5l.7 1c-.4.3-.8.6-1.3.7-.4.1-.9.2-1.4.2-.5 0-.9-.1-1.3-.2-.4-.2-.8-.4-1.1-.7-.3-.3-.5-.7-.7-1.1-.2-.4-.2-.9-.2-1.4 0-.5.1-1 .2-1.4.2-.4.4-.8.7-1.1.3-.3.6-.5 1-.7.4-.2.9-.3 1.3-.3zm-4.3 1.4h-2.5v2.8c0 .2 0 .4.1.6.1.2.1.3.2.4.1.1.2.2.3.2.1 0 .3.1.4.1.2 0 .4 0 .7-.1l.6-.3.6 1.1c-.3.2-.6.3-.9.5-.3.1-.7.2-1.1.2-.7 0-1.3-.2-1.7-.6-.4-.4-.6-1-.6-1.9V4.6h-1.3V3.3h1.3v-2h1.4v2h2.5v1.2zm-6.7.4c-.1-.1-.2-.1-.4-.2-.1-.1-.3-.1-.5-.2s-.4-.1-.6-.1c-.2 0-.4-.1-.6-.1-.4 0-.7.1-.9.2-.2.1-.3.3-.3.6 0 .1 0 .2.1.3l.2.2c.1 0 .2.1.3.1.1 0 .3.1.4.1l.7.1c.7.1 1.3.3 1.7.6.4.3.6.7.6 1.3 0 .3-.1.6-.2.9-.1.3-.3.5-.6.7-.3.2-.6.3-.9.4-.4.1-.8.2-1.3.2h-.6c-.2 0-.5-.1-.7-.1-.2-.1-.5-.1-.8-.3-.3-.1-.5-.3-.7-.4l.7-1.1c.1.1.2.2.4.3.1.1.3.1.5.2s.4.1.6.1c.2 0 .4.1.7.1.5 0 .9-.1 1.1-.2.2-.1.4-.3.4-.6 0-.2-.1-.3-.3-.5-.2-.1-.5-.2-.9-.3l-.7-.1c-.7-.1-1.3-.3-1.6-.6-.4-.3-.6-.7-.6-1.3 0-.3.1-.6.2-.9.1-.3.3-.5.5-.7.2-.2.5-.3.8-.4.3-.1.7-.1 1.1-.1.5 0 1 .1 1.4.2.5.1.8.3 1.2.5l-.4 1.1zm-9.8-.5c-.3 0-.6.1-.8.2-.2.1-.4.3-.6.4-.2.2-.3.4-.4.7-.1.3-.1.5-.1.8 0 .3 0 .6.1.8.1.3.2.5.4.7.2.2.4.3.6.4.2.1.5.2.8.2.3 0 .6-.1.8-.2.2-.1.4-.3.6-.4.2-.2.3-.4.4-.7.1-.3.1-.5.1-.8 0-.3 0-.6-.1-.8-.1-.3-.2-.5-.4-.7-.2-.2-.4-.3-.6-.4-.3-.1-.5-.2-.8-.2zm3.3 5.3h-1.4v-.8c-.2.3-.5.5-.8.7-.3.2-.7.3-1.2.3s-.9-.1-1.3-.3c-.4-.2-.7-.4-1-.7-.3-.3-.5-.7-.7-1.1-.2-.4-.3-.9-.3-1.4 0-.5.1-1 .3-1.4.2-.4.4-.8.7-1.1.3-.3.6-.5 1-.7.4-.2.8-.3 1.3-.3s.9.1 1.2.3c.3.2.6.4.8.7v-.8h1.4v6.6zm-8.1 0H9.5V1.9L6.7 8.8H5.1L2.3 2v7.7H.8V.2h2.4L6 7 8.8.2h2.4v9.5H11z"
            fill="#EC001B"></path>
    </g>
</svg>
