<svg width="65" height="33" viewBox="0 0 65 33"
     xmlns="http://www.w3.org/2000/svg">
    <title>Verified by Visa</title>
    <g fill="#1A1F71" fill-rule="evenodd">
        <path
            d="M53.9 26.7L52.6 21l-2.2 5.7h3.5zm-9.7 5.4s5.2-12.3 5.8-13.7c.6-1.5 1.8-1.7 1.8-1.7h3.4L58.6 32H55l-.4-2.2h-5.3l-.7 2.2h-4.4v.1zm.3-11.8l.6-3.3s-1.7-.7-3.8-.7c-2.1 0-6.5 1.3-6.5 5.1s5.5 4 5.5 6.1c0 2.1-5 1.9-6.5.5l-.6 3.4s2.2.9 4.2.9 7-.5 7-5.4c0-4.3-5.5-3.5-5.5-6.1 0 0 .6-2.6 5.6-.5zm-15.3-3.7l-2.5 15.5h3.9l2.5-15.5h-3.9zm-15.6 2.1l3.5 13.4h4.1l6.4-15.5h-4.1l-4.1 10.5-1.6-8.2-4.2-.2z"></path>
        <path
            d="M19 25l-1.2-6.1s-.2-2.3-1.8-2.3H9.4v.3S15.9 18 19 25M56.3 7.3c0-1.6-.9-3.1-2.6-3.1-1.7 0-2.6 1.5-2.6 3.1 0 1.7.9 3.1 2.6 3.1 1.6 0 2.6-1.4 2.6-3.1zM51.1.2v4.3c.7-1.2 1.9-1.4 2.5-1.4 2.4 0 4 1.9 4 4.2 0 2.3-1.5 4.2-4 4.2-.7 0-1.8-.3-2.5-1.4v1.2h-1.2V.2h1.2zm-6.5 7.1c0-1.6-.9-3.1-2.6-3.1-1.7 0-2.6 1.5-2.6 3.1 0 1.7.9 3.1 2.6 3.1 1.7 0 2.6-1.4 2.6-3.1zM45.7.2v11.1h-1.2v-1.2c-.7 1.1-1.8 1.4-2.5 1.4-2.4 0-4-1.9-4-4.2 0-2.3 1.5-4.2 4-4.2.6 0 1.8.3 2.5 1.4V.2h1.2zm-9 6.6c0-1.2-.8-2.6-2.6-2.6-1.7 0-2.5 1.4-2.6 2.6h5.2zm-6.5.5c0-2.3 1.7-4.2 3.9-4.2 2.4 0 3.8 1.9 3.8 4.3v.3h-6.4c.1 1.5 1.1 2.7 2.8 2.7.9 0 1.8-.4 2.4-1l.7.9c-.8.8-1.9 1.3-3.2 1.3-2.3-.1-4-1.8-4-4.3zm-1.8 4h1.2V3.2h-1.2v8.1zM29 .4c.4 0 .7.4.7.8s-.3.8-.7.8c-.4 0-.7-.3-.7-.8 0-.4.3-.8.7-.8zm-5.7 2.9h1.3c0-.6.1-3.3 3.3-3.3v1.1c-2 0-2.1 1.8-2.1 2.2h2.1v1.1h-2.1v7h-1.2v-7h-1.3V3.3zm-1.3 8h1.2V3.2H22v8.1zM22.6.4c.4 0 .7.4.7.8s-.3.8-.7.8c-.4 0-.7-.3-.7-.8 0-.4.3-.8.7-.8zm-.9 4.1h-.5c-1 0-2.4.5-2.4 2.9v4h-1.2V3.3h1.2v1.2c.6-.7 1.7-1.4 2.9-1.4v1.4zm-5.8 2.3c0-1.2-.8-2.6-2.6-2.6-1.7 0-2.5 1.4-2.6 2.6h5.2zm-6.5.5c0-2.3 1.7-4.2 3.9-4.2 2.4 0 3.8 1.9 3.8 4.3v.3h-6.4c.1 1.5 1.1 2.7 2.8 2.7.9 0 1.8-.4 2.4-1l.7.9c-.8.8-1.9 1.3-3.2 1.3-2.3-.1-4-1.8-4-4.3zm-5 4L0 .2h1.6l3.7 9.6L9 .2h1.6L6.2 11.3H4.4z"></path>
        <path
            d="M57.9 13.4c.2.1.5.1.7.1.6 0 .9-.2 1.2-.9l.5-1.2L57 3.2h1.4L61 9.8l2.7-6.6H65l-4 9.7c-.5 1.2-1.3 1.6-2.3 1.6-.3 0-.7-.1-.9-.1l.1-1z"></path>
    </g>
</svg>
